<mxfile host="app.diagrams.net" modified="2023-03-19T15:20:48.548Z" agent="5.0 (Macintosh; Intel Mac OS X 10_15_7) AppleWebKit/537.36 (KHTML, like Gecko) Chrome/111.0.0.0 Safari/537.36" etag="Km9erqXdyE9fqBO3UEew" version="21.0.8" type="github">
  <diagram name="Page-1" id="U_PLo-a9jSgPIzsnLref">
    <mxGraphModel dx="2284" dy="770" grid="1" gridSize="10" guides="1" tooltips="1" connect="1" arrows="1" fold="1" page="1" pageScale="1" pageWidth="850" pageHeight="1100" math="0" shadow="0">
      <root>
        <mxCell id="0" />
        <mxCell id="1" parent="0" />
        <mxCell id="o5oNrveWwFTw8eqrBP50-6" value="" style="edgeStyle=orthogonalEdgeStyle;rounded=0;orthogonalLoop=1;jettySize=auto;html=1;" edge="1" parent="1" source="o5oNrveWwFTw8eqrBP50-1" target="o5oNrveWwFTw8eqrBP50-5">
          <mxGeometry relative="1" as="geometry" />
        </mxCell>
        <mxCell id="o5oNrveWwFTw8eqrBP50-1" value="" style="rounded=0;whiteSpace=wrap;html=1;" vertex="1" parent="1">
          <mxGeometry x="60" y="80" width="120" height="60" as="geometry" />
        </mxCell>
        <mxCell id="o5oNrveWwFTw8eqrBP50-2" value="" style="shape=flexArrow;endArrow=classic;html=1;rounded=0;" edge="1" parent="1">
          <mxGeometry width="50" height="50" relative="1" as="geometry">
            <mxPoint x="220" y="180" as="sourcePoint" />
            <mxPoint x="280" y="180" as="targetPoint" />
            <Array as="points">
              <mxPoint x="250" y="140" />
            </Array>
          </mxGeometry>
        </mxCell>
        <mxCell id="o5oNrveWwFTw8eqrBP50-3" value="" style="endArrow=classic;startArrow=classic;html=1;rounded=0;" edge="1" parent="1">
          <mxGeometry width="50" height="50" relative="1" as="geometry">
            <mxPoint x="-30" y="370" as="sourcePoint" />
            <mxPoint x="480" y="330" as="targetPoint" />
            <Array as="points">
              <mxPoint x="140" y="170" />
            </Array>
          </mxGeometry>
        </mxCell>
        <mxCell id="o5oNrveWwFTw8eqrBP50-4" value="" style="endArrow=classic;html=1;rounded=0;" edge="1" parent="1">
          <mxGeometry width="50" height="50" relative="1" as="geometry">
            <mxPoint x="400" y="420" as="sourcePoint" />
            <mxPoint x="450" y="370" as="targetPoint" />
          </mxGeometry>
        </mxCell>
        <mxCell id="o5oNrveWwFTw8eqrBP50-5" value="" style="shape=singleArrow;whiteSpace=wrap;html=1;arrowWidth=0.4;arrowSize=0.4;rounded=0;" vertex="1" parent="1">
          <mxGeometry x="280" y="80" width="80" height="60" as="geometry" />
        </mxCell>
      </root>
    </mxGraphModel>
  </diagram>
</mxfile>
